<?xml version="1.0" encoding="utf-8"?>
<!-- Generator: Adobe Illustrator 28.1.0, SVG Export Plug-In . SVG Version: 6.00 Build 0)  -->
<svg version="1.1" id="Layer_1" xmlns="http://www.w3.org/2000/svg" xmlns:xlink="http://www.w3.org/1999/xlink" x="0px" y="0px"
	 viewBox="0 0 62 62" style="enable-background:new 0 0 62 62;" xml:space="preserve">
<style type="text/css">
	.st0{fill:#FEFAE0;}
</style>
<path class="st0" d="M62,28l0-19.5h-7.8V15C49.2,8,41,3.3,31.7,3.3c-13.2,0-24.3,9.4-26.9,21.8h8c2.4-8.1,10-14.1,18.9-14.1
	c7,0,13.2,3.7,16.7,9.2h-5.9V28L62,28L62,28L62,28z"/>
<path class="st0" d="M0,33.9v19.5h7.8V47c5,7.1,13.2,11.7,22.5,11.7c13.2,0,24.3-9.4,26.9-21.8h-8c-2.4,8.1-10,14.1-18.9,14.1
	c-7,0-13.2-3.7-16.7-9.2h5.9v-7.8L0,33.9L0,33.9z"/>
</svg>
