<?xml version="1.0" encoding="utf-8"?>
<svg xmlns="http://www.w3.org/2000/svg">
<symbol id="again" viewBox="0 0 62 62"><style>.st0{fill:#fefae0}</style><path d="M62 28V8.5h-7.8V15C49.2 8 41 3.3 31.7 3.3c-13.2 0-24.3 9.4-26.9 21.8h8C15.2 17 22.8 11 31.7 11c7 0 13.2 3.7 16.7 9.2h-5.9V28zM0 33.9v19.5h7.8V47c5 7.1 13.2 11.7 22.5 11.7 13.2 0 24.3-9.4 26.9-21.8h-8C46.8 45 39.2 51 30.3 51c-7 0-13.2-3.7-16.7-9.2h5.9V34z" class="st0"/>
</symbol>
<symbol id="dice-1" viewBox="0 0 180 180"><style>.st1{fill:#023047}</style><path d="M20.1 178c-10 0-18.1-8.1-18.1-18.1V20.1C2 10.1 10.1 2 20.1 2h139.8c10 0 18.1 8.1 18.1 18.1v139.8c0 10-8.1 18.1-18.1 18.1z" style="fill:#fdf0d5"/><path d="M159.9 4c8.9 0 16.1 7.2 16.1 16.1v139.8c0 8.9-7.2 16.1-16.1 16.1H20.1C11.2 176 4 168.8 4 159.9V20.1C4 11.2 11.2 4 20.1 4zm0-4H20.1C9 0 0 9 0 20.1v139.8C0 171 9 180 20.1 180h139.8c11.1 0 20.1-9 20.1-20.1V20.1C180 9 171 0 159.9 0" class="st1"/><path d="M84 84h12v12H84z" class="st1"/>
</symbol>
<symbol id="dice-2" viewBox="0 0 180 180"><style>.st1{fill:#023047}</style><path d="M20.1 178c-10 0-18.1-8.1-18.1-18.1V20.1C2 10.1 10.1 2 20.1 2h139.8c10 0 18.1 8.1 18.1 18.1v139.8c0 10-8.1 18.1-18.1 18.1z" style="fill:#fdf0d5"/><path d="M159.9 4c8.9 0 16.1 7.2 16.1 16.1v139.8c0 8.9-7.2 16.1-16.1 16.1H20.1C11.2 176 4 168.8 4 159.9V20.1C4 11.2 11.2 4 20.1 4zm0-4H20.1C9 0 0 9 0 20.1v139.8C0 171 9 180 20.1 180h139.8c11.1 0 20.1-9 20.1-20.1V20.1C180 9 171 0 159.9 0" class="st1"/><path d="m42.41 129.098 8.485-8.485 8.485 8.485-8.485 8.485zM120.617 50.902l8.486-8.485 8.485 8.485-8.485 8.485z" class="st1"/>
</symbol>
<symbol id="dice-3" viewBox="0 0 180 180"><style>.st1{fill:#023047}</style><path d="M20.1 178c-10 0-18.1-8.1-18.1-18.1V20.1C2 10.1 10.1 2 20.1 2h139.8c10 0 18.1 8.1 18.1 18.1v139.8c0 10-8.1 18.1-18.1 18.1z" style="fill:#fdf0d5"/><path d="M159.9 4c8.9 0 16.1 7.2 16.1 16.1v139.8c0 8.9-7.2 16.1-16.1 16.1H20.1C11.2 176 4 168.8 4 159.9V20.1C4 11.2 11.2 4 20.1 4zm0-4H20.1C9 0 0 9 0 20.1v139.8C0 171 9 180 20.1 180h139.8c11.1 0 20.1-9 20.1-20.1V20.1C180 9 171 0 159.9 0" class="st1"/><path d="m42.41 129.098 8.485-8.485 8.485 8.485-8.485 8.485zM81.514 90l8.485-8.485L98.484 90l-8.485 8.485zM120.617 50.902l8.486-8.485 8.485 8.485-8.485 8.485z" class="st1"/>
</symbol>
<symbol id="dice-4" viewBox="0 0 180 180"><style>.st1{fill:#023047}</style><path d="M20.1 178c-10 0-18.1-8.1-18.1-18.1V20.1C2 10.1 10.1 2 20.1 2h139.8c10 0 18.1 8.1 18.1 18.1v139.8c0 10-8.1 18.1-18.1 18.1z" style="fill:#fdf0d5"/><path d="M159.9 4c8.9 0 16.1 7.2 16.1 16.1v139.8c0 8.9-7.2 16.1-16.1 16.1H20.1C11.2 176 4 168.8 4 159.9V20.1C4 11.2 11.2 4 20.1 4zm0-4H20.1C9 0 0 9 0 20.1v139.8C0 171 9 180 20.1 180h139.8c11.1 0 20.1-9 20.1-20.1V20.1C180 9 171 0 159.9 0" class="st1"/><path d="M48.7 53.3h12v12h-12zM119.3 53.3h12v12h-12zM48.7 114.7h12v12h-12zM119.3 114.7h12v12h-12z" class="st1"/>
</symbol>
<symbol id="dice-5" viewBox="0 0 180 180"><style>.st1{fill:#023047}</style><path d="M20.1 178c-10 0-18.1-8.1-18.1-18.1V20.1C2 10.1 10.1 2 20.1 2h139.8c10 0 18.1 8.1 18.1 18.1v139.8c0 10-8.1 18.1-18.1 18.1z" style="fill:#fdf0d5"/><path d="M159.9 4c8.9 0 16.1 7.2 16.1 16.1v139.8c0 8.9-7.2 16.1-16.1 16.1H20.1C11.2 176 4 168.8 4 159.9V20.1C4 11.2 11.2 4 20.1 4zm0-4H20.1C9 0 0 9 0 20.1v139.8C0 171 9 180 20.1 180h139.8c11.1 0 20.1-9 20.1-20.1V20.1C180 9 171 0 159.9 0" class="st1"/><path d="M38.7 53.3h12v12h-12zM84 84h12v12H84zM129.3 53.3h12v12h-12zM38.7 114.7h12v12h-12zM129.3 114.7h12v12h-12z" class="st1"/>
</symbol>
<symbol id="dice-6" viewBox="0 0 180 180"><style>.st1{fill:#023047}</style><path d="M20.1 178c-10 0-18.1-8.1-18.1-18.1V20.1C2 10.1 10.1 2 20.1 2h139.8c10 0 18.1 8.1 18.1 18.1v139.8c0 10-8.1 18.1-18.1 18.1z" style="fill:#fdf0d5"/><path d="M159.9 4c8.9 0 16.1 7.2 16.1 16.1v139.8c0 8.9-7.2 16.1-16.1 16.1H20.1C11.2 176 4 168.8 4 159.9V20.1C4 11.2 11.2 4 20.1 4zm0-4H20.1C9 0 0 9 0 20.1v139.8C0 171 9 180 20.1 180h139.8c11.1 0 20.1-9 20.1-20.1V20.1C180 9 171 0 159.9 0" class="st1"/><path d="M28.7 53.3h12v12h-12zM84 53.3h12v12H84zM139.3 53.3h12v12h-12zM28.7 114.7h12v12h-12zM84 114.7h12v12H84zM139.3 114.7h12v12h-12z" class="st1"/>
</symbol></svg>