<svg xmlns="http://www.w3.org/2000/svg" xml:space="preserve" id="Layer_1" x="0" y="0" version="1.1" viewBox="0 0 180 180"><style>.st1{fill:#023047}</style><path d="M20.1 178c-10 0-18.1-8.1-18.1-18.1V20.1C2 10.1 10.1 2 20.1 2h139.8c10 0 18.1 8.1 18.1 18.1v139.8c0 10-8.1 18.1-18.1 18.1z" style="fill:#fdf0d5"/><path d="M159.9 4c8.9 0 16.1 7.2 16.1 16.1v139.8c0 8.9-7.2 16.1-16.1 16.1H20.1C11.2 176 4 168.8 4 159.9V20.1C4 11.2 11.2 4 20.1 4zm0-4H20.1C9 0 0 9 0 20.1v139.8C0 171 9 180 20.1 180h139.8c11.1 0 20.1-9 20.1-20.1V20.1C180 9 171 0 159.9 0" class="st1"/><path d="M38.7 53.3h12v12h-12zM84 84h12v12H84zM129.3 53.3h12v12h-12zM38.7 114.7h12v12h-12zM129.3 114.7h12v12h-12z" class="st1"/></svg>